<svg xmlns="http://www.w3.org/2000/svg" viewBox="0 0 420 96" role="img" aria-label="SmartHotel wordmark">
  <defs>
    <linearGradient id="shWordmarkGradient" x1="0" y1="0" x2="1" y2="1">
      <stop offset="0%" stop-color="#3ddad7"/>
      <stop offset="100%" stop-color="#2f6bff"/>
    </linearGradient>
  </defs>
  <rect x="8" y="10" width="76" height="76" rx="16" fill="#0f1422"/>
  <path d="M20 34 46 18l26 16v34a6 6 0 0 1-6 6H26a6 6 0 0 1-6-6z" fill="url(#shWordmarkGradient)"/>
  <rect x="41" y="51" width="10" height="23" rx="2.5" fill="#d9ecff"/>
  <rect x="28" y="40.5" width="8" height="8" rx="1.5" fill="#d9ecff"/>
  <rect x="56" y="40.5" width="8" height="8" rx="1.5" fill="#d9ecff"/>
  <rect x="28" y="54" width="8" height="8" rx="1.5" fill="#d9ecff"/>
  <rect x="56" y="54" width="8" height="8" rx="1.5" fill="#d9ecff"/>
  <circle cx="72" cy="20" r="6" fill="#f5c15b"/>
  <text x="104" y="57" font-family="Segoe UI, Arial, sans-serif" font-size="40" font-weight="700" fill="#f5f7ff" letter-spacing="0.5">SmartHotel</text>
</svg>
